# xmcd
#
# Track frame offsets:
#	150
#	16137
#	32023
#	48480
#	62870
#	80157
#	96181
#	111603
#	127834
#	143709
#	159757
#	176298
#	192062
#	207325
#	223371
#	238731
#	254043
#
# Disc length: 3628 seconds
#
# Revision: 1
# Processed by: cddbd v1.5.2PL0 Copyright (c) Steve Scherf et al.
# Submitted via: audiograbber 1.83.01
#
DISCID=f50e2a11
DTITLE=Gene Austin - Cowboy Fever Gene Austin
DYEAR=1999
DGENRE=Country
TTITLE0=Cowboy Fever
TTITLE1=She Still Thinks I´m Superman
TTITLE2=Storybook Castles
TTITLE3=Texas Wild Rose
TTITLE4=Country Rock
TTITLE5=Tender-hearted Thieves
TTITLE6=I´m Going Out To Play The Jukebox
TTITLE7=It´s Your Baby
TTITLE8=I Know How Columbus Felt
TTITLE9=Skatting On Thin Ice
TTITLE10=There´s More To Her Love
TTITLE11=A Millon Reasons
TTITLE12=Sleeping On The Job
TTITLE13=My Loves Got Me
TTITLE14=Blue Jeans Or Large
TTITLE15=Make Your Body Move
TTITLE16=Brazilian Woman
EXTD=
EXTT0=
EXTT1=
EXTT2=
EXTT3=
EXTT4=
EXTT5=
EXTT6=
EXTT7=
EXTT8=
EXTT9=
EXTT10=
EXTT11=
EXTT12=
EXTT13=
EXTT14=
EXTT15=
EXTT16=
PLAYORDER=
